<?xml version="1.0" encoding="UTF-8"?><svg id="Layer_1" xmlns="http://www.w3.org/2000/svg" xmlns:xlink="http://www.w3.org/1999/xlink" viewBox="0 0 390.33 553.36"><defs><style>.cls-1{fill:none;}.cls-2{clip-path:url(#clippath);}.cls-3{fill:#fff;}.cls-4{fill:#fe4a3c;}.cls-5{clip-path:url(#clippath-1);}.cls-6{clip-path:url(#clippath-4);}.cls-7{clip-path:url(#clippath-3);}.cls-8{clip-path:url(#clippath-2);}.cls-9{clip-path:url(#clippath-5);}</style><clipPath id="clippath"><rect class="cls-1" x="191.34" y="489.19" width="8.25" height="64.04"/></clipPath><clipPath id="clippath-1"><path class="cls-1" d="M221.9,497.93h30.08c6.19,0,11.16,4.97,11.16,11.16,0,3.03-1.21,5.82-3.27,8-2.18,2.06-4.97,3.27-8,3.27l-29.96-.24v-22.19h-.01Zm43.78,24.98c3.76-3.64,5.82-8.61,5.82-13.83,0-10.67-8.73-19.4-19.4-19.4h-38.32v63.55h8.25v-24.98l29.84,.24h.73l11.89,24.62h9.1l-12.86-26.56c1.7-.97,3.4-2.18,4.97-3.64h-.02Z"/></clipPath><clipPath id="clippath-2"><path class="cls-1" d="M312.37,545.1c-12.98,0-23.53-10.55-23.53-23.53s10.55-23.53,23.53-23.53,23.53,10.55,23.53,23.53-10.55,23.53-23.53,23.53Zm0-55.3c-17.59,0-31.78,14.31-31.78,31.78s14.31,31.78,31.78,31.78,31.78-14.31,31.78-31.78-14.31-31.78-31.78-31.78h0Z"/></clipPath><clipPath id="clippath-3"><path class="cls-1" d="M145.37,497.44c12.86,0,23.41,10.43,23.53,23.29h-47.18c.24-12.86,10.67-23.29,23.65-23.29h0Zm0-8.25c-17.59,0-31.78,14.31-31.78,31.78v32.26h8.25v-24.26h47.18v24.26h8.25v-32.26c-.12-17.46-14.31-31.78-31.9-31.78h0Z"/></clipPath><clipPath id="clippath-4"><path class="cls-1" d="M77.94,497.44c6.79,0,13.22,2.91,17.71,8l6.19-5.46c-6.06-6.91-14.8-10.79-23.89-10.79-17.59,0-31.78,14.31-31.78,31.78s14.31,31.78,31.78,31.78c8.85,0,17.34-3.76,23.29-10.19l-6.06-5.58c-4.49,4.85-10.79,7.52-17.22,7.52-12.98,0-23.53-10.55-23.53-23.53s10.55-23.53,23.53-23.53h-.02Z"/></clipPath><clipPath id="clippath-5"><path class="cls-1" d="M217.54,105.6c-21.12,0-38.44-17.32-38.44-38.44s17.32-38.44,38.44-38.44,38.44,17.32,38.44,38.44-16.9,38.44-38.44,38.44ZM195.16,0C87.44,0,0,87.44,0,195.16c0,45.62,16.05,87.86,42.24,121.23,21.12-29.99,43.93-58.29,72.66-81.53,.84-.84,2.96-2.11,5.49-3.8,11.83-8.87,20.28-21.97,22.39-36.75v-.42c7.18-47.73,26.61-64.21,81.1-64.21,4.65,0,10.14,0,15.21,.42,27.88,1.27,43.93,9.29,45.62,13.52,1.27,2.11,.84,4.65,.42,7.18l-2.11-.42c-17.32-2.11-43.51,2.96-47.31,21.97-2.11,10.56,.42,22.39,1.27,32.95,1.27,10.98,2.11,22.39,2.11,33.37,0,.84-.84,5.07,0,5.49-29.57-28.3-98,7.18-119.54,22.81,2.11-.84,4.22-1.69,6.76-2.53,20.7-7.18,82.79-25.77,106.87-5.07,20.28,24.92,2.11,70.97-13.09,93.78-8.87,13.52-19.85,25.77-32.1,36.33h7.18c107.72,0,195.16-87.44,195.16-195.16S303.29,0,195.16,0Z"/></clipPath></defs><g><g><rect class="cls-3" x="191.34" y="489.19" width="8.25" height="64.04"/><g class="cls-2"><rect class="cls-3" x="190.12" y="487.98" width="10.67" height="66.46"/></g></g><g><path class="cls-3" d="M221.9,497.93h30.08c6.19,0,11.16,4.97,11.16,11.16,0,3.03-1.21,5.82-3.27,8-2.18,2.06-4.97,3.27-8,3.27l-29.96-.24v-22.19h-.01Zm43.78,24.98c3.76-3.64,5.82-8.61,5.82-13.83,0-10.67-8.73-19.4-19.4-19.4h-38.32v63.55h8.25v-24.98l29.84,.24h.73l11.89,24.62h9.1l-12.86-26.56c1.7-.97,3.4-2.18,4.97-3.64h-.02Z"/><g class="cls-5"><rect class="cls-3" x="212.56" y="488.47" width="62.22" height="65.98"/></g></g><g><path class="cls-3" d="M312.37,545.1c-12.98,0-23.53-10.55-23.53-23.53s10.55-23.53,23.53-23.53,23.53,10.55,23.53,23.53-10.55,23.53-23.53,23.53Zm0-55.3c-17.59,0-31.78,14.31-31.78,31.78s14.31,31.78,31.78,31.78,31.78-14.31,31.78-31.78-14.31-31.78-31.78-31.78h0Z"/><g class="cls-8"><rect class="cls-3" x="279.39" y="488.59" width="65.98" height="65.98"/></g></g><g><path class="cls-3" d="M145.37,497.44c12.86,0,23.41,10.43,23.53,23.29h-47.18c.24-12.86,10.67-23.29,23.65-23.29h0Zm0-8.25c-17.59,0-31.78,14.31-31.78,31.78v32.26h8.25v-24.26h47.18v24.26h8.25v-32.26c-.12-17.46-14.31-31.78-31.9-31.78h0Z"/><g class="cls-7"><rect class="cls-3" x="112.38" y="487.98" width="66.1" height="66.46"/></g></g><g><path class="cls-3" d="M77.94,497.44c6.79,0,13.22,2.91,17.71,8l6.19-5.46c-6.06-6.91-14.8-10.79-23.89-10.79-17.59,0-31.78,14.31-31.78,31.78s14.31,31.78,31.78,31.78c8.85,0,17.34-3.76,23.29-10.19l-6.06-5.58c-4.49,4.85-10.79,7.52-17.22,7.52-12.98,0-23.53-10.55-23.53-23.53s10.55-23.53,23.53-23.53h-.02Z"/><g class="cls-6"><rect class="cls-3" x="44.95" y="487.98" width="58.09" height="65.98"/></g></g></g><g class="cls-9"><rect class="cls-4" x="-4.22" y="-4.22" width="398.76" height="397.92"/></g></svg>