<?xml version="1.0" encoding="UTF-8"?><svg id="Layer_1" xmlns="http://www.w3.org/2000/svg" viewBox="0 0 375 92.2"><defs><style>.cls-1{fill:#fe4a3c;}.cls-2{fill:#fafaf5;}</style></defs><g><rect class="cls-2" x="249" y="19.9" width="6.8" height="52.8"/><path class="cls-2" d="M310.3,47.7c3.1-3,4.8-7.1,4.8-11.4,0-8.8-7.2-16-16-16h-31.6v52.4h6.8v-20.6l24.6,.2h.6l9.8,20.3h7.5l-10.6-21.9c1.4-.8,2.8-1.8,4.1-3h0Zm-36.1-20.6h24.8c5.1,0,9.2,4.1,9.2,9.2,0,2.5-1,4.8-2.7,6.6-1.8,1.7-4.1,2.7-6.6,2.7l-24.7-.2V27.1h0Z"/><path class="cls-2" d="M348.8,20.4c-14.5,0-26.2,11.8-26.2,26.2s11.8,26.2,26.2,26.2,26.2-11.8,26.2-26.2-11.8-26.2-26.2-26.2Zm0,45.6c-10.7,0-19.4-8.7-19.4-19.4s8.7-19.4,19.4-19.4,19.4,8.7,19.4,19.4-8.7,19.4-19.4,19.4Z"/><path class="cls-2" d="M211.1,19.9c-14.5,0-26.2,11.8-26.2,26.2v26.6h6.8v-20h38.9v20h6.8v-26.6c-.1-14.4-11.8-26.2-26.3-26.2h0Zm0,6.8c10.6,0,19.3,8.6,19.4,19.2h-38.9c.2-10.6,8.8-19.2,19.5-19.2h0Z"/><path class="cls-2" d="M155.5,26.7c5.6,0,10.9,2.4,14.6,6.6l5.1-4.5c-5-5.7-12.2-8.9-19.7-8.9-14.5,0-26.2,11.8-26.2,26.2s11.8,26.2,26.2,26.2c7.3,0,14.3-3.1,19.2-8.4l-5-4.6c-3.7,4-8.9,6.2-14.2,6.2-10.7,0-19.4-8.7-19.4-19.4s8.7-19.4,19.4-19.4h0Z"/></g><path class="cls-1" d="M46.2,0C20.7,0,0,20.7,0,46.2c0,10.8,3.8,20.8,10,28.7,5-7.1,10.4-13.8,17.2-19.3,.2-.2,.7-.5,1.3-.9,2.8-2.1,4.8-5.2,5.3-8.7v-.1c1.7-11.3,6.3-15.2,19.2-15.2,1.1,0,2.4,0,3.6,.1,6.6,.3,10.4,2.2,10.8,3.2,.3,.5,.2,1.1,.1,1.7l-.5-.1c-4.1-.5-10.3,.7-11.2,5.2-.5,2.5,.1,5.3,.3,7.8,.3,2.6,.5,5.3,.5,7.9,0,.2-.2,1.2,0,1.3-7-6.7-23.2,1.7-28.3,5.4,.5-.2,1-.4,1.6-.6,4.9-1.7,19.6-6.1,25.3-1.2,4.8,5.9,.5,16.8-3.1,22.2-2.1,3.2-4.7,6.1-7.6,8.6h1.7c25.5,0,46.2-20.7,46.2-46.2S71.8,0,46.2,0Zm5.3,25c-5,0-9.1-4.1-9.1-9.1s4.1-9.1,9.1-9.1,9.1,4.1,9.1,9.1-4,9.1-9.1,9.1Z"/></svg>